# xmcd CD database file
#
# Track frame offsets:
#	150
#	13312
#	34075
#	62837
#	79554
#	100947
#	122192
#	138787
#	166475
#	184350
#	204042
#	220255
#	229330
#	252455
#	265122
#	285122
#
# Disc length: 4060 seconds
#
# Revision: 2
# Processed by: cddbd v1.5.1PL2 Copyright (c) Steve Scherf et al.
# Submitted via: CDex 1.51
#
DISCID=e00fda10
DTITLE=The Ronnie Gardiner Septet - Click!
DYEAR=1997
DGENRE=Jazz
TTITLE0=Ronnie's Theme
TTITLE1=Drizzle Dazzle
TTITLE2=The day after 4 a.m.
TTITLE3=Theme 4-2
TTITLE4=Tradition
TTITLE5=Take the A-train
TTITLE6=Nuages
TTITLE7=Caramel
TTITLE8=I'm getting sentimental over you
TTITLE9=Siesta in the groove
TTITLE10=Sanna
TTITLE11=12th Street Rag
TTITLE12=Willow weep for me
TTITLE13=Everyday I have the blues
TTITLE14=My song for Maj
TTITLE15=Blues for Eva
EXTD=YEAR: 1997
EXTT0=
EXTT1=
EXTT2=
EXTT3=
EXTT4=
EXTT5=
EXTT6=
EXTT7=
EXTT8=
EXTT9=
EXTT10=
EXTT11=
EXTT12=
EXTT13=
EXTT14=
EXTT15=
PLAYORDER=
